<?xml version="1.0" encoding="utf-8" standalone="no"?>
<!DOCTYPE svg PUBLIC "-//W3C//DTD SVG 1.1//EN"
  "http://www.w3.org/Graphics/SVG/1.1/DTD/svg11.dtd">
<svg xmlns:xlink="http://www.w3.org/1999/xlink" width="1296pt" height="1440pt" viewBox="0 0 1296 1440" xmlns="http://www.w3.org/2000/svg" version="1.1">
 <metadata>
  <rdf:RDF xmlns:dc="http://purl.org/dc/elements/1.1/" xmlns:cc="http://creativecommons.org/ns#" xmlns:rdf="http://www.w3.org/1999/02/22-rdf-syntax-ns#">
   <cc:Work>
    <dc:type rdf:resource="http://purl.org/dc/dcmitype/StillImage"/>
    <dc:date>2024-05-25T17:39:14.964022</dc:date>
    <dc:format>image/svg+xml</dc:format>
    <dc:creator>
     <cc:Agent>
      <dc:title>Matplotlib v3.7.2, https://matplotlib.org/</dc:title>
     </cc:Agent>
    </dc:creator>
   </cc:Work>
  </rdf:RDF>
 </metadata>
 <defs>
  <style type="text/css">*{stroke-linejoin: round; stroke-linecap: butt}</style>
 </defs>
 <g id="figure_1">
  <g id="patch_1">
   <path d="M 0 1440 
L 1296 1440 
L 1296 0 
L 0 0 
z
" style="fill: #ffffff"/>
  </g>
  <g id="axes_1">
   <g id="patch_2">
    <path d="M 670.734722 205.750594 
L 411.660897 313.062486 
L 304.349006 572.13631 
L 411.660897 831.210135 
L 670.734722 938.522026 
L 929.808546 831.210135 
L 1037.120438 572.13631 
L 929.808546 313.062486 
z
" style="fill: #ffffff"/>
   </g>
   <g id="patch_3">
    <path d="M 670.734722 253.540035 
L 579.050355 480.451944 
L 518.8458 572.13631 
L 581.669908 661.201123 
L 670.734722 912.960232 
L 799.092835 700.494423 
L 952.284918 572.13631 
L 809.571048 433.299984 
z
" clip-path="url(#p14ce3062ef)" style="fill: #0000ff; opacity: 0.15"/>
   </g>
   <g id="patch_4">
    <path d="M 670.734722 320.222977 
L 626.202315 527.603904 
L 581.824133 572.13631 
L 524.039735 718.831297 
L 670.734722 924.074056 
L 801.712388 703.113977 
L 855.965114 572.13631 
L 736.223555 506.647477 
z
" clip-path="url(#p14ce3062ef)" style="fill: #ff0000; opacity: 0.15"/>
   </g>
   <g id="matplotlib.axis_1">
    <g id="xtick_1">
     <g id="line2d_1">
      <path d="M 670.734722 572.13631 
L 670.734722 526.338096 
L 670.734722 480.539881 
L 670.734722 434.741667 
L 670.734722 388.943452 
L 670.734722 343.145238 
L 670.734722 297.347023 
L 670.734722 251.548809 
L 670.734722 205.750594 
" clip-path="url(#p14ce3062ef)" style="fill: none; stroke: #808080; stroke-linecap: square"/>
     </g>
     <g id="text_1">
      <!-- Calibration -->
      <g transform="translate(562.603486 87.204235) scale(0.48 -0.48)">
       <defs>
        <path id="CMR17-43" d="M 3974 4351 
C 3974 4467 3968 4473 3930 4473 
C 3904 4473 3898 4467 3853 4390 
L 3571 3849 
C 3258 4249 2874 4480 2381 4480 
C 1286 4480 294 3507 294 2179 
C 294 837 1286 -128 2387 -128 
C 3366 -128 3974 741 3974 1482 
C 3974 1547 3974 1573 3917 1573 
C 3866 1573 3866 1553 3859 1495 
C 3808 592 3168 38 2477 38 
C 1824 38 781 502 781 2179 
C 781 3862 1843 4313 2464 4313 
C 3187 4313 3712 3681 3834 2785 
C 3846 2707 3846 2695 3904 2695 
C 3974 2695 3974 2707 3974 2824 
L 3974 4351 
z
" transform="scale(0.015625)"/>
        <path id="CMR17-61" d="M 2304 1656 
C 2304 2048 2304 2275 2035 2534 
C 1798 2751 1523 2816 1306 2816 
C 800 2816 435 2408 435 1977 
C 435 1740 627 1728 666 1728 
C 749 1728 896 1779 896 1958 
C 896 2118 774 2188 666 2188 
C 640 2188 608 2182 589 2176 
C 723 2594 1069 2713 1293 2713 
C 1613 2713 1965 2421 1965 1875 
L 1965 1632 
C 1587 1619 1133 1568 774 1373 
C 371 1147 256 822 256 576 
C 256 77 832 -64 1171 -64 
C 1523 -64 1850 135 1990 505 
C 2003 219 2182 -39 2464 -39 
C 2598 -39 2938 51 2938 563 
L 2938 926 
L 2822 926 
L 2822 557 
C 2822 161 2650 109 2566 109 
C 2304 109 2304 446 2304 732 
L 2304 1656 
z
M 1965 887 
C 1965 323 1568 38 1216 38 
C 896 38 646 278 646 576 
C 646 771 730 1114 1101 1322 
C 1408 1497 1760 1523 1965 1536 
L 1965 887 
z
" transform="scale(0.015625)"/>
        <path id="CMR17-6c" d="M 979 4416 
L 218 4345 
L 218 4179 
C 595 4179 653 4141 653 3835 
L 653 439 
C 653 198 627 166 218 166 
L 218 0 
C 371 12 653 12 813 12 
C 979 12 1261 12 1414 0 
L 1414 166 
C 1005 166 979 191 979 439 
L 979 4416 
z
" transform="scale(0.015625)"/>
        <path id="CMR17-69" d="M 992 3961 
C 992 4102 877 4224 730 4224 
C 589 4224 467 4108 467 3961 
C 467 3820 582 3699 730 3699 
C 870 3699 992 3814 992 3961 
z
M 243 2745 
L 243 2579 
C 602 2579 653 2540 653 2231 
L 653 443 
C 653 198 627 166 218 166 
L 218 0 
C 371 12 646 12 806 12 
C 960 12 1222 12 1370 0 
L 1370 166 
C 992 166 979 205 979 436 
L 979 2816 
L 243 2745 
z
" transform="scale(0.015625)"/>
        <path id="CMR17-62" d="M 960 4416 
L 198 4345 
L 198 4179 
C 576 4179 634 4141 634 3843 
L 634 -13 
L 749 -13 
L 934 445 
C 1120 141 1395 -64 1766 -64 
C 2406 -64 3053 503 3053 1382 
C 3053 2209 2477 2816 1830 2816 
C 1434 2816 1152 2603 960 2351 
L 960 4416 
z
M 973 2022 
C 973 2138 973 2157 1062 2293 
C 1312 2681 1670 2713 1792 2713 
C 1984 2713 2643 2610 2643 1388 
C 2643 109 1888 38 1734 38 
C 1536 38 1248 115 1043 490 
C 973 613 973 626 973 742 
L 973 2022 
z
" transform="scale(0.015625)"/>
        <path id="CMR17-72" d="M 960 1517 
C 960 2134 1222 2713 1702 2713 
C 1747 2713 1792 2707 1837 2687 
C 1837 2687 1696 2642 1696 2475 
C 1696 2321 1818 2257 1914 2257 
C 1990 2257 2131 2302 2131 2482 
C 2131 2687 1926 2816 1709 2816 
C 1222 2816 1011 2340 947 2115 
L 941 2115 
L 941 2816 
L 198 2745 
L 198 2578 
C 576 2578 634 2540 634 2231 
L 634 443 
C 634 198 608 166 198 166 
L 198 0 
C 352 12 646 12 813 12 
C 998 12 1325 12 1498 0 
L 1498 166 
C 1037 166 960 166 960 455 
L 960 1517 
z
" transform="scale(0.015625)"/>
        <path id="CMR17-74" d="M 966 2585 
L 1862 2585 
L 1862 2752 
L 966 2752 
L 966 3968 
L 851 3968 
C 838 3292 614 2700 70 2687 
L 70 2585 
L 627 2585 
L 627 778 
C 627 655 627 -64 1370 -64 
C 1747 -64 1965 308 1965 784 
L 1965 1151 
L 1850 1151 
L 1850 790 
C 1850 347 1677 51 1408 51 
C 1222 51 966 179 966 765 
L 966 2585 
z
" transform="scale(0.015625)"/>
        <path id="CMR17-6f" d="M 2758 1356 
C 2758 2176 2163 2816 1466 2816 
C 768 2816 173 2176 173 1356 
C 173 550 768 -64 1466 -64 
C 2163 -64 2758 550 2758 1356 
z
M 1466 51 
C 1165 51 909 230 762 480 
C 602 768 582 1126 582 1408 
C 582 1676 595 2009 762 2297 
C 890 2508 1139 2713 1466 2713 
C 1754 2713 1997 2553 2150 2329 
C 2349 2028 2349 1606 2349 1408 
C 2349 1158 2336 774 2163 467 
C 1984 172 1709 51 1466 51 
z
" transform="scale(0.015625)"/>
        <path id="CMR17-6e" d="M 2656 1954 
C 2656 2282 2592 2816 1837 2816 
C 1331 2816 1069 2424 973 2166 
L 966 2166 
L 966 2816 
L 211 2745 
L 211 2578 
C 589 2578 646 2540 646 2231 
L 646 443 
C 646 198 621 166 211 166 
L 211 0 
C 365 12 646 12 813 12 
C 979 12 1267 12 1421 0 
L 1421 166 
C 1011 166 986 192 986 443 
L 986 1678 
C 986 2269 1344 2713 1792 2713 
C 2266 2713 2317 2289 2317 1980 
L 2317 443 
C 2317 198 2291 166 1882 166 
L 1882 0 
C 2035 12 2317 12 2483 12 
C 2650 12 2938 12 3091 0 
L 3091 166 
C 2682 166 2656 192 2656 443 
L 2656 1954 
z
" transform="scale(0.015625)"/>
       </defs>
       <use xlink:href="#CMR17-43" transform="scale(0.996264)"/>
       <use xlink:href="#CMR17-61" transform="translate(66.509881 0) scale(0.996264)"/>
       <use xlink:href="#CMR17-6c" transform="translate(112.200358 0) scale(0.996264)"/>
       <use xlink:href="#CMR17-69" transform="translate(137.071416 0) scale(0.996264)"/>
       <use xlink:href="#CMR17-62" transform="translate(161.942475 0) scale(0.996264)"/>
       <use xlink:href="#CMR17-72" transform="translate(212.837844 0) scale(0.996264)"/>
       <use xlink:href="#CMR17-61" transform="translate(248.118612 0) scale(0.996264)"/>
       <use xlink:href="#CMR17-74" transform="translate(293.809089 0) scale(0.996264)"/>
       <use xlink:href="#CMR17-69" transform="translate(329.089857 0) scale(0.996264)"/>
       <use xlink:href="#CMR17-6f" transform="translate(353.960916 0) scale(0.996264)"/>
       <use xlink:href="#CMR17-6e" transform="translate(399.651393 0) scale(0.996264)"/>
      </g>
     </g>
    </g>
    <g id="xtick_2">
     <g id="line2d_2">
      <path d="M 670.734722 572.13631 
L 638.350494 539.752082 
L 605.966266 507.367854 
L 573.582037 474.983626 
L 541.197809 442.599398 
L 508.813581 410.21517 
L 476.429353 377.830942 
L 444.045125 345.446714 
L 411.660897 313.062486 
" clip-path="url(#p14ce3062ef)" style="fill: none; stroke: #808080; stroke-linecap: square"/>
     </g>
     <g id="text_2">
      <!-- Adv.  -->
      <g transform="translate(273.031829 208.16264) scale(0.48 -0.48)">
       <defs>
        <path id="CMR17-41" d="M 2323 4441 
C 2291 4524 2278 4544 2214 4544 
C 2150 4544 2138 4524 2106 4441 
L 749 580 
C 627 236 371 166 147 166 
L 147 0 
C 262 12 518 12 640 12 
C 800 12 1056 12 1210 0 
L 1210 166 
C 909 179 864 382 864 459 
C 864 516 877 548 890 586 
L 1229 1536 
L 2906 1536 
L 3290 453 
C 3322 376 3322 363 3322 338 
C 3322 166 3046 166 2925 166 
L 2925 0 
C 3110 12 3443 12 3642 12 
C 3808 12 4128 12 4282 0 
L 4282 166 
C 3942 166 3827 166 3744 402 
L 2323 4441 
z
M 2067 3924 
L 2848 1702 
L 1286 1702 
L 2067 3924 
z
" transform="scale(0.015625)"/>
        <path id="CMR17-64" d="M 1869 4345 
L 1869 4179 
C 2246 4179 2304 4141 2304 3843 
L 2304 2371 
C 2278 2403 2016 2816 1498 2816 
C 845 2816 211 2228 211 1376 
C 211 529 806 -64 1434 -64 
C 1978 -64 2259 361 2291 406 
L 2291 -64 
L 3066 -13 
L 3066 154 
C 2688 154 2630 193 2630 503 
L 2630 4416 
L 1869 4345 
z
M 2291 762 
C 2291 568 2176 393 2029 264 
C 1811 70 1594 38 1472 38 
C 1286 38 621 135 621 1369 
C 621 2636 1363 2713 1530 2713 
C 1824 2713 2061 2545 2208 2313 
C 2291 2177 2291 2157 2291 2041 
L 2291 762 
z
" transform="scale(0.015625)"/>
        <path id="CMR17-76" d="M 2502 2173 
C 2560 2315 2662 2572 3034 2585 
L 3034 2752 
C 2912 2745 2752 2739 2630 2739 
C 2496 2739 2285 2739 2157 2752 
L 2157 2585 
C 2317 2572 2406 2495 2406 2328 
C 2406 2270 2406 2257 2368 2167 
L 1664 379 
L 902 2308 
C 864 2392 864 2405 864 2431 
C 864 2585 1075 2585 1171 2585 
L 1171 2752 
C 1018 2739 736 2739 576 2739 
C 403 2739 205 2739 64 2752 
L 64 2585 
C 307 2585 442 2585 518 2386 
L 1446 44 
C 1485 -52 1491 -64 1549 -64 
C 1606 -64 1613 -52 1651 44 
L 2502 2173 
z
" transform="scale(0.015625)"/>
        <path id="CMR17-2e" d="M 1062 262 
C 1062 422 934 524 800 524 
C 672 524 538 422 538 262 
C 538 102 666 0 800 0 
C 928 0 1062 102 1062 262 
z
" transform="scale(0.015625)"/>
       </defs>
       <use xlink:href="#CMR17-41" transform="scale(0.996264)"/>
       <use xlink:href="#CMR17-64" transform="translate(69.07243 0) scale(0.996264)"/>
       <use xlink:href="#CMR17-76" transform="translate(119.9678 0) scale(0.996264)"/>
       <use xlink:href="#CMR17-2e" transform="translate(168.260715 0) scale(0.996264)"/>
      </g>
      <!--  robustness -->
      <g transform="translate(219.344781 257.314743) scale(0.48 -0.48)">
       <defs>
        <path id="CMR17-75" d="M 1882 2745 
L 1882 2579 
C 2259 2579 2317 2540 2317 2229 
L 2317 1053 
C 2317 510 2029 38 1555 38 
C 1030 38 986 355 986 691 
L 986 2816 
L 211 2745 
L 211 2579 
C 467 2579 640 2579 646 2320 
L 646 1079 
C 646 646 646 368 813 187 
C 896 103 1056 -64 1517 -64 
C 2061 -64 2272 400 2323 536 
L 2330 536 
L 2330 -64 
L 3091 -13 
L 3091 154 
C 2714 154 2656 193 2656 503 
L 2656 2816 
L 1882 2745 
z
" transform="scale(0.015625)"/>
        <path id="CMR17-73" d="M 1978 2688 
C 1978 2803 1971 2809 1933 2809 
C 1907 2809 1901 2803 1824 2707 
C 1805 2681 1747 2617 1728 2592 
C 1523 2809 1235 2816 1126 2816 
C 416 2816 160 2444 160 2073 
C 160 1497 813 1363 998 1324 
C 1402 1241 1542 1216 1677 1100 
C 1760 1024 1901 883 1901 652 
C 1901 384 1747 38 1158 38 
C 602 38 403 460 288 1024 
C 269 1113 269 1120 218 1120 
C 166 1120 160 1113 160 985 
L 160 64 
C 160 -52 166 -58 205 -58 
C 237 -58 243 -52 275 0 
C 314 57 410 211 448 275 
C 576 102 800 -64 1158 -64 
C 1792 -64 2131 281 2131 780 
C 2131 1107 1958 1280 1875 1356 
C 1683 1555 1459 1600 1190 1651 
C 838 1728 390 1817 390 2208 
C 390 2374 480 2726 1126 2726 
C 1811 2726 1850 2086 1862 1881 
C 1869 1849 1901 1843 1920 1843 
C 1978 1843 1978 1862 1978 1971 
L 1978 2688 
z
" transform="scale(0.015625)"/>
        <path id="CMR17-65" d="M 2438 1503 
C 2464 1529 2464 1542 2464 1606 
C 2464 2251 2118 2816 1389 2816 
C 710 2816 173 2175 173 1394 
C 173 554 781 -64 1459 -64 
C 2176 -64 2458 619 2458 755 
C 2458 800 2419 800 2406 800 
C 2362 800 2355 787 2330 709 
C 2189 270 1837 51 1504 51 
C 1229 51 954 206 781 490 
C 582 819 582 1200 582 1503 
L 2438 1503 
z
M 589 1600 
C 634 2511 1126 2713 1382 2713 
C 1818 2713 2112 2308 2118 1600 
L 589 1600 
z
" transform="scale(0.015625)"/>
       </defs>
       <use xlink:href="#CMR17-72" transform="scale(0.996264)"/>
       <use xlink:href="#CMR17-6f" transform="translate(35.280768 0) scale(0.996264)"/>
       <use xlink:href="#CMR17-62" transform="translate(80.971245 0) scale(0.996264)"/>
       <use xlink:href="#CMR17-75" transform="translate(131.866615 0) scale(0.996264)"/>
       <use xlink:href="#CMR17-73" transform="translate(182.761984 0) scale(0.996264)"/>
       <use xlink:href="#CMR17-74" transform="translate(218.563322 0) scale(0.996264)"/>
       <use xlink:href="#CMR17-6e" transform="translate(253.84409 0) scale(0.996264)"/>
       <use xlink:href="#CMR17-65" transform="translate(304.73946 0) scale(0.996264)"/>
       <use xlink:href="#CMR17-73" transform="translate(345.22512 0) scale(0.996264)"/>
       <use xlink:href="#CMR17-73" transform="translate(381.026458 0) scale(0.996264)"/>
      </g>
     </g>
    </g>
    <g id="xtick_3">
     <g id="line2d_3">
      <path d="M 670.734722 572.13631 
L 624.936507 572.13631 
L 579.138293 572.13631 
L 533.340078 572.13631 
L 487.541864 572.13631 
L 441.743649 572.13631 
L 395.945435 572.13631 
L 350.14722 572.13631 
L 304.349006 572.13631 
" clip-path="url(#p14ce3062ef)" style="fill: none; stroke: #808080; stroke-linecap: square"/>
     </g>
     <g id="text_3">
      <!-- OOD  -->
      <g transform="translate(122.531452 559.513899) scale(0.48 -0.48)">
       <defs>
        <path id="CMR17-4f" d="M 4307 2166 
C 4307 3488 3366 4480 2304 4480 
C 1216 4480 294 3475 294 2166 
C 294 857 1229 -128 2298 -128 
C 3392 -128 4307 876 4307 2166 
z
M 2304 -13 
C 1574 -13 781 722 781 2250 
C 781 3771 1651 4364 2298 4364 
C 2976 4364 3821 3752 3821 2250 
C 3821 696 3008 -13 2304 -13 
z
" transform="scale(0.015625)"/>
        <path id="CMR17-44" d="M 333 4352 
L 333 4185 
C 774 4185 845 4185 845 3898 
L 845 453 
C 845 166 774 166 333 166 
L 333 0 
L 2368 0 
C 3398 0 4224 943 4224 2140 
C 4224 3344 3411 4352 2368 4352 
L 333 4352 
z
M 1523 166 
C 1267 166 1254 198 1254 414 
L 1254 3936 
C 1254 4153 1267 4185 1523 4185 
L 2240 4185 
C 2771 4185 3750 3873 3750 2140 
C 3750 1242 3488 879 3366 707 
C 3213 510 2848 166 2240 166 
L 1523 166 
z
" transform="scale(0.015625)"/>
       </defs>
       <use xlink:href="#CMR17-4f" transform="scale(0.996264)"/>
       <use xlink:href="#CMR17-4f" transform="translate(71.714788 0) scale(0.996264)"/>
       <use xlink:href="#CMR17-44" transform="translate(143.429577 0) scale(0.996264)"/>
      </g>
      <!--  detection -->
      <g transform="translate(86.4 608.666002) scale(0.48 -0.48)">
       <defs>
        <path id="CMR17-63" d="M 2234 2240 
C 2112 2240 1933 2240 1933 2015 
C 1933 1836 2080 1785 2163 1785 
C 2208 1785 2394 1804 2394 2028 
C 2394 2476 1958 2816 1466 2816 
C 787 2816 211 2201 211 1379 
C 211 521 813 -64 1466 -64 
C 2259 -64 2458 676 2458 747 
C 2458 773 2451 792 2406 792 
C 2362 792 2355 786 2330 702 
C 2163 180 1798 51 1523 51 
C 1114 51 621 431 621 1385 
C 621 2358 1094 2700 1472 2700 
C 1722 2700 2093 2582 2234 2240 
z
" transform="scale(0.015625)"/>
       </defs>
       <use xlink:href="#CMR17-64" transform="scale(0.996264)"/>
       <use xlink:href="#CMR17-65" transform="translate(50.89537 0) scale(0.996264)"/>
       <use xlink:href="#CMR17-74" transform="translate(91.38103 0) scale(0.996264)"/>
       <use xlink:href="#CMR17-65" transform="translate(126.661798 0) scale(0.996264)"/>
       <use xlink:href="#CMR17-63" transform="translate(167.147459 0) scale(0.996264)"/>
       <use xlink:href="#CMR17-74" transform="translate(207.633119 0) scale(0.996264)"/>
       <use xlink:href="#CMR17-69" transform="translate(242.913887 0) scale(0.996264)"/>
       <use xlink:href="#CMR17-6f" transform="translate(267.784945 0) scale(0.996264)"/>
       <use xlink:href="#CMR17-6e" transform="translate(313.475422 0) scale(0.996264)"/>
      </g>
     </g>
    </g>
    <g id="xtick_4">
     <g id="line2d_4">
      <path d="M 670.734722 572.13631 
L 638.350494 604.520538 
L 605.966266 636.904766 
L 573.582037 669.288994 
L 541.197809 701.673222 
L 508.813581 734.05745 
L 476.429353 766.441678 
L 444.045125 798.825907 
L 411.660897 831.210135 
" clip-path="url(#p14ce3062ef)" style="fill: none; stroke: #808080; stroke-linecap: square"/>
     </g>
     <g id="text_4">
      <!-- Shape bias -->
      <g transform="translate(216.471713 935.44121) scale(0.48 -0.48)">
       <defs>
        <path id="CMR17-53" d="M 2803 4351 
C 2803 4467 2797 4473 2758 4473 
C 2720 4473 2707 4447 2682 4390 
L 2490 3965 
C 2246 4320 1875 4480 1472 4480 
C 819 4480 294 3958 294 3301 
C 294 3101 339 2817 557 2546 
C 794 2250 1018 2198 1530 2063 
C 1722 2011 2042 1927 2106 1901 
C 2470 1747 2662 1360 2662 999 
C 2662 534 2336 38 1779 38 
C 1094 38 454 425 410 1328 
C 403 1431 397 1437 352 1437 
C 301 1437 294 1431 294 1302 
L 294 0 
C 294 -116 301 -122 339 -122 
C 384 -122 397 -90 486 109 
C 493 128 493 141 614 386 
C 934 -39 1472 -128 1779 -128 
C 2477 -128 2970 457 2970 1141 
C 2970 1476 2848 1734 2778 1850 
C 2509 2263 2221 2340 1914 2417 
C 1869 2437 1856 2437 1498 2527 
C 1152 2617 1005 2662 845 2836 
C 666 3036 602 3243 602 3449 
C 602 3868 934 4326 1478 4326 
C 2157 4326 2579 3842 2675 3036 
C 2694 2920 2701 2914 2746 2914 
C 2803 2914 2803 2933 2803 3043 
L 2803 4351 
z
" transform="scale(0.015625)"/>
        <path id="CMR17-68" d="M 2656 1954 
C 2656 2282 2592 2816 1837 2816 
C 1312 2816 1056 2392 979 2179 
L 973 2179 
L 973 4416 
L 211 4345 
L 211 4179 
C 589 4179 646 4141 646 3843 
L 646 443 
C 646 198 621 166 211 166 
L 211 0 
C 365 12 646 12 813 12 
C 979 12 1267 12 1421 0 
L 1421 166 
C 1011 166 986 192 986 443 
L 986 1678 
C 986 2269 1344 2713 1792 2713 
C 2266 2713 2317 2289 2317 1980 
L 2317 443 
C 2317 198 2291 166 1882 166 
L 1882 0 
C 2035 12 2317 12 2483 12 
C 2650 12 2938 12 3091 0 
L 3091 166 
C 2682 166 2656 192 2656 443 
L 2656 1954 
z
" transform="scale(0.015625)"/>
        <path id="CMR17-70" d="M 1408 -1114 
C 998 -1114 973 -1088 973 -834 
L 973 380 
C 1158 109 1427 -64 1766 -64 
C 2406 -64 3053 503 3053 1382 
C 3053 2196 2496 2816 1837 2816 
C 1453 2816 1139 2603 960 2345 
L 960 2816 
L 198 2745 
L 198 2577 
C 576 2577 634 2539 634 2228 
L 634 -834 
C 634 -1081 608 -1114 198 -1114 
L 198 -1280 
C 352 -1268 634 -1268 800 -1268 
C 966 -1268 1254 -1268 1408 -1280 
L 1408 -1114 
z
M 973 2015 
C 973 2106 973 2241 1222 2481 
C 1254 2506 1472 2700 1792 2700 
C 2259 2700 2643 2112 2643 1376 
C 2643 639 2234 38 1728 38 
C 1498 38 1248 148 1056 451 
C 973 594 973 632 973 736 
L 973 2015 
z
" transform="scale(0.015625)"/>
       </defs>
       <use xlink:href="#CMR17-53" transform="scale(0.996264)"/>
       <use xlink:href="#CMR17-68" transform="translate(50.89537 0) scale(0.996264)"/>
       <use xlink:href="#CMR17-61" transform="translate(101.79074 0) scale(0.996264)"/>
       <use xlink:href="#CMR17-70" transform="translate(147.481217 0) scale(0.996264)"/>
       <use xlink:href="#CMR17-65" transform="translate(200.979025 0) scale(0.996264)"/>
       <use xlink:href="#CMR17-62" transform="translate(271.540652 0) scale(0.996264)"/>
       <use xlink:href="#CMR17-69" transform="translate(322.436022 0) scale(0.996264)"/>
       <use xlink:href="#CMR17-61" transform="translate(347.30708 0) scale(0.996264)"/>
       <use xlink:href="#CMR17-73" transform="translate(392.997557 0) scale(0.996264)"/>
      </g>
     </g>
    </g>
    <g id="xtick_5">
     <g id="line2d_5">
      <path d="M 670.734722 572.13631 
L 670.734722 617.934525 
L 670.734722 663.732739 
L 670.734722 709.530954 
L 670.734722 755.329168 
L 670.734722 801.127383 
L 670.734722 846.925597 
L 670.734722 892.723812 
L 670.734722 938.522026 
" clip-path="url(#p14ce3062ef)" style="fill: none; stroke: #808080; stroke-linecap: square"/>
     </g>
     <g id="text_5">
      <!-- Background  -->
      <g transform="translate(556.397943 1056.399615) scale(0.48 -0.48)">
       <defs>
        <path id="CMR17-42" d="M 333 4352 
L 333 4185 
C 774 4185 845 4185 845 3897 
L 845 451 
C 845 166 774 166 333 166 
L 333 0 
L 2534 0 
C 3354 0 3885 578 3885 1155 
C 3885 1726 3360 2214 2675 2259 
C 3290 2380 3718 2790 3718 3276 
C 3718 3808 3194 4352 2368 4352 
L 333 4352 
z
M 1248 2304 
L 1248 3936 
C 1248 4153 1261 4185 1517 4185 
L 2336 4185 
C 2970 4185 3251 3673 3251 3276 
C 3251 2790 2861 2304 2170 2304 
L 1248 2304 
z
M 1517 166 
C 1261 166 1248 198 1248 413 
L 1248 2201 
L 2432 2201 
C 3091 2201 3411 1624 3411 1161 
C 3411 698 3046 166 2349 166 
L 1517 166 
z
" transform="scale(0.015625)"/>
        <path id="CMR17-6b" d="M 1670 1679 
C 1664 1692 1632 1730 1632 1749 
C 1632 1762 2086 2175 2144 2226 
C 2509 2532 2739 2563 2906 2570 
L 2906 2735 
C 2867 2735 2854 2735 2848 2729 
L 2534 2722 
C 2355 2722 2080 2722 1907 2735 
L 1907 2570 
C 1997 2563 2061 2513 2061 2423 
C 2061 2296 1933 2175 1926 2175 
L 960 1298 
L 960 4416 
L 198 4345 
L 198 4179 
C 576 4179 634 4141 634 3835 
L 634 439 
C 634 198 608 166 198 166 
L 198 0 
C 352 12 634 12 794 12 
C 954 12 1235 12 1389 0 
L 1389 166 
C 979 166 954 191 954 439 
L 954 1139 
L 1395 1540 
L 2042 586 
C 2118 471 2182 382 2182 299 
C 2182 185 2067 166 1990 166 
L 1990 0 
C 2144 12 2419 12 2579 12 
C 2694 12 2931 6 3040 0 
L 3040 166 
C 2739 166 2669 223 2477 503 
L 1670 1679 
z
" transform="scale(0.015625)"/>
        <path id="CMR17-67" d="M 710 1165 
C 832 1068 1043 960 1299 960 
C 1805 960 2240 1359 2240 1895 
C 2240 2063 2189 2321 1997 2521 
C 2176 2713 2438 2777 2586 2777 
C 2611 2777 2650 2777 2682 2758 
C 2656 2751 2598 2726 2598 2623 
C 2598 2540 2656 2483 2739 2483 
C 2835 2483 2886 2547 2886 2630 
C 2886 2751 2790 2880 2586 2880 
C 2330 2880 2106 2758 1926 2591 
C 1734 2764 1504 2828 1299 2828 
C 794 2828 358 2431 358 1895 
C 358 1527 570 1294 634 1230 
C 442 1004 442 742 442 710 
C 442 544 506 300 723 166 
C 390 82 128 -184 128 -517 
C 128 -996 736 -1344 1466 -1344 
C 2170 -1344 2803 -1009 2803 -510 
C 2803 384 1856 384 1363 384 
C 1216 384 954 384 922 390 
C 723 422 589 601 589 825 
C 589 883 589 1024 710 1165 
z
M 1299 1068 
C 736 1068 736 1766 736 1895 
C 736 2024 736 2719 1299 2719 
C 1862 2719 1862 2024 1862 1895 
C 1862 1766 1862 1068 1299 1068 
z
M 1466 -1236 
C 826 -1236 384 -883 384 -517 
C 384 -311 493 -118 634 -11 
C 794 102 858 102 1293 102 
C 1818 102 2547 102 2547 -517 
C 2547 -883 2106 -1236 1466 -1236 
z
" transform="scale(0.015625)"/>
       </defs>
       <use xlink:href="#CMR17-42" transform="scale(0.996264)"/>
       <use xlink:href="#CMR17-61" transform="translate(65.188754 0) scale(0.996264)"/>
       <use xlink:href="#CMR17-63" transform="translate(110.879232 0) scale(0.996264)"/>
       <use xlink:href="#CMR17-6b" transform="translate(148.762438 0) scale(0.996264)"/>
       <use xlink:href="#CMR17-67" transform="translate(197.055354 0) scale(0.996264)"/>
       <use xlink:href="#CMR17-72" transform="translate(242.745831 0) scale(0.996264)"/>
       <use xlink:href="#CMR17-6f" transform="translate(278.026599 0) scale(0.996264)"/>
       <use xlink:href="#CMR17-75" transform="translate(323.717076 0) scale(0.996264)"/>
       <use xlink:href="#CMR17-6e" transform="translate(374.612446 0) scale(0.996264)"/>
       <use xlink:href="#CMR17-64" transform="translate(425.507816 0) scale(0.996264)"/>
      </g>
      <!--  bias -->
      <g transform="translate(632.99274 1105.551718) scale(0.48 -0.48)">
       <use xlink:href="#CMR17-62" transform="scale(0.996264)"/>
       <use xlink:href="#CMR17-69" transform="translate(50.89537 0) scale(0.996264)"/>
       <use xlink:href="#CMR17-61" transform="translate(75.766428 0) scale(0.996264)"/>
       <use xlink:href="#CMR17-73" transform="translate(121.456905 0) scale(0.996264)"/>
      </g>
     </g>
    </g>
    <g id="xtick_6">
     <g id="line2d_6">
      <path d="M 670.734722 572.13631 
L 703.11895 604.520538 
L 735.503178 636.904766 
L 767.887406 669.288994 
L 800.271634 701.673222 
L 832.655862 734.05745 
L 865.04009 766.441678 
L 897.424318 798.825907 
L 929.808546 831.210135 
" clip-path="url(#p14ce3062ef)" style="fill: none; stroke: #808080; stroke-linecap: square"/>
     </g>
     <g id="text_6">
      <!-- Context bias -->
      <g transform="translate(900.365743 935.44121) scale(0.48 -0.48)">
       <defs>
        <path id="CMR17-78" d="M 1664 1491 
C 1856 1740 2074 2022 2253 2233 
C 2464 2476 2707 2579 2989 2585 
L 2989 2752 
C 2880 2745 2656 2739 2541 2739 
C 2368 2739 2170 2739 2022 2752 
L 2022 2585 
C 2112 2572 2163 2508 2163 2419 
C 2163 2304 2099 2233 2067 2188 
L 1594 1587 
L 1030 2323 
C 973 2393 973 2406 973 2438 
C 973 2515 1037 2579 1146 2585 
L 1146 2752 
C 992 2739 717 2739 557 2739 
C 384 2739 179 2739 38 2752 
L 38 2585 
C 384 2585 461 2560 614 2368 
L 1350 1414 
C 1363 1401 1395 1363 1395 1344 
C 1395 1318 838 633 768 544 
C 480 198 179 172 6 166 
L 6 0 
C 115 6 339 12 454 12 
C 582 12 864 12 979 0 
L 979 166 
C 941 172 838 185 838 332 
C 838 448 890 518 947 595 
L 1478 1248 
L 2035 524 
C 2086 454 2163 358 2163 313 
C 2163 224 2086 172 1984 166 
L 1984 0 
C 2138 12 2413 12 2573 12 
C 2746 12 2950 12 3091 0 
L 3091 166 
C 2771 166 2675 179 2522 377 
L 1664 1491 
z
" transform="scale(0.015625)"/>
       </defs>
       <use xlink:href="#CMR17-43" transform="scale(0.996264)"/>
       <use xlink:href="#CMR17-6f" transform="translate(66.509881 0) scale(0.996264)"/>
       <use xlink:href="#CMR17-6e" transform="translate(112.200358 0) scale(0.996264)"/>
       <use xlink:href="#CMR17-74" transform="translate(160.493274 0) scale(0.996264)"/>
       <use xlink:href="#CMR17-65" transform="translate(195.774041 0) scale(0.996264)"/>
       <use xlink:href="#CMR17-78" transform="translate(236.259702 0) scale(0.996264)"/>
       <use xlink:href="#CMR17-74" transform="translate(284.552618 0) scale(0.996264)"/>
       <use xlink:href="#CMR17-62" transform="translate(349.909352 0) scale(0.996264)"/>
       <use xlink:href="#CMR17-69" transform="translate(400.804722 0) scale(0.996264)"/>
       <use xlink:href="#CMR17-61" transform="translate(425.67578 0) scale(0.996264)"/>
       <use xlink:href="#CMR17-73" transform="translate(471.366257 0) scale(0.996264)"/>
      </g>
     </g>
    </g>
    <g id="xtick_7">
     <g id="line2d_7">
      <path d="M 670.734722 572.13631 
L 716.532936 572.13631 
L 762.331151 572.13631 
L 808.129365 572.13631 
L 853.92758 572.13631 
L 899.725794 572.13631 
L 945.524009 572.13631 
L 991.322223 572.13631 
L 1037.120438 572.13631 
" clip-path="url(#p14ce3062ef)" style="fill: none; stroke: #808080; stroke-linecap: square"/>
     </g>
     <g id="text_7">
      <!-- Acc. -->
      <g transform="translate(1125.640875 584.089951) scale(0.48 -0.48)">
       <use xlink:href="#CMR17-41" transform="scale(0.996264)"/>
       <use xlink:href="#CMR17-63" transform="translate(69.07243 0) scale(0.996264)"/>
       <use xlink:href="#CMR17-63" transform="translate(109.55809 0) scale(0.996264)"/>
       <use xlink:href="#CMR17-2e" transform="translate(150.043751 0) scale(0.996264)"/>
      </g>
     </g>
    </g>
    <g id="xtick_8">
     <g id="line2d_8">
      <path d="M 670.734722 572.13631 
L 703.11895 539.752082 
L 735.503178 507.367854 
L 767.887406 474.983626 
L 800.271634 442.599398 
L 832.655862 410.21517 
L 865.04009 377.830942 
L 897.424318 345.446714 
L 929.808546 313.062486 
" clip-path="url(#p14ce3062ef)" style="fill: none; stroke: #808080; stroke-linecap: square"/>
     </g>
     <g id="text_8">
      <!-- Common corr.  -->
      <g transform="translate(884.251549 208.16264) scale(0.48 -0.48)">
       <defs>
        <path id="CMR17-6d" d="M 4326 1954 
C 4326 2276 4269 2816 3507 2816 
C 3072 2816 2771 2520 2656 2173 
L 2650 2173 
C 2573 2700 2195 2816 1837 2816 
C 1331 2816 1069 2424 973 2166 
L 966 2166 
L 966 2816 
L 211 2745 
L 211 2578 
C 589 2578 646 2540 646 2231 
L 646 443 
C 646 198 621 166 211 166 
L 211 0 
C 365 12 646 12 813 12 
C 979 12 1267 12 1421 0 
L 1421 166 
C 1011 166 986 192 986 443 
L 986 1678 
C 986 2269 1344 2713 1792 2713 
C 2266 2713 2317 2289 2317 1980 
L 2317 443 
C 2317 198 2291 166 1882 166 
L 1882 0 
C 2035 12 2317 12 2483 12 
C 2650 12 2938 12 3091 0 
L 3091 166 
C 2682 166 2656 192 2656 443 
L 2656 1678 
C 2656 2269 3014 2713 3462 2713 
C 3936 2713 3987 2289 3987 1980 
L 3987 443 
C 3987 198 3962 166 3552 166 
L 3552 0 
C 3706 12 3987 12 4154 12 
C 4320 12 4608 12 4762 0 
L 4762 166 
C 4352 166 4326 192 4326 443 
L 4326 1954 
z
" transform="scale(0.015625)"/>
       </defs>
       <use xlink:href="#CMR17-43" transform="scale(0.996264)"/>
       <use xlink:href="#CMR17-6f" transform="translate(66.509881 0) scale(0.996264)"/>
       <use xlink:href="#CMR17-6d" transform="translate(112.200358 0) scale(0.996264)"/>
       <use xlink:href="#CMR17-6d" transform="translate(189.119948 0) scale(0.996264)"/>
       <use xlink:href="#CMR17-6f" transform="translate(266.039537 0) scale(0.996264)"/>
       <use xlink:href="#CMR17-6e" transform="translate(311.730015 0) scale(0.996264)"/>
       <use xlink:href="#CMR17-63" transform="translate(392.701351 0) scale(0.996264)"/>
       <use xlink:href="#CMR17-6f" transform="translate(433.187011 0) scale(0.996264)"/>
       <use xlink:href="#CMR17-72" transform="translate(478.877488 0) scale(0.996264)"/>
       <use xlink:href="#CMR17-72" transform="translate(514.158256 0) scale(0.996264)"/>
       <use xlink:href="#CMR17-2e" transform="translate(549.439024 0) scale(0.996264)"/>
      </g>
      <!--  robustness -->
      <g transform="translate(922.0473 257.314743) scale(0.48 -0.48)">
       <use xlink:href="#CMR17-72" transform="scale(0.996264)"/>
       <use xlink:href="#CMR17-6f" transform="translate(35.280768 0) scale(0.996264)"/>
       <use xlink:href="#CMR17-62" transform="translate(80.971245 0) scale(0.996264)"/>
       <use xlink:href="#CMR17-75" transform="translate(131.866615 0) scale(0.996264)"/>
       <use xlink:href="#CMR17-73" transform="translate(182.761984 0) scale(0.996264)"/>
       <use xlink:href="#CMR17-74" transform="translate(218.563322 0) scale(0.996264)"/>
       <use xlink:href="#CMR17-6e" transform="translate(253.84409 0) scale(0.996264)"/>
       <use xlink:href="#CMR17-65" transform="translate(304.73946 0) scale(0.996264)"/>
       <use xlink:href="#CMR17-73" transform="translate(345.22512 0) scale(0.996264)"/>
       <use xlink:href="#CMR17-73" transform="translate(381.026458 0) scale(0.996264)"/>
      </g>
     </g>
    </g>
   </g>
   <g id="matplotlib.axis_2">
    <g id="ytick_1">
     <g id="line2d_9">
      <path d="M 670.734722 498.044153 
L 618.343655 519.745244 
L 596.642565 572.13631 
L 618.343655 624.527377 
L 670.734722 646.228467 
L 723.125788 624.527377 
L 744.826879 572.13631 
L 723.125788 519.745244 
L 670.734722 498.044153 
" clip-path="url(#p14ce3062ef)" style="fill: none; stroke: #808080; stroke-linecap: square"/>
     </g>
     <g id="text_9">
      <!-- $\mathdefault{0.2}$ -->
      <g transform="translate(642.380881 494.9639) scale(0.45 -0.45)">
       <defs>
        <path id="CMR17-30" d="M 2688 2038 
C 2688 2430 2682 3099 2413 3613 
C 2176 4063 1798 4224 1466 4224 
C 1158 4224 768 4082 525 3620 
C 269 3137 243 2539 243 2038 
C 243 1671 250 1112 448 623 
C 723 -39 1216 -128 1466 -128 
C 1760 -128 2208 -7 2470 604 
C 2662 1048 2688 1568 2688 2038 
z
M 1466 -26 
C 1056 -26 813 328 723 816 
C 653 1196 653 1749 653 2109 
C 653 2604 653 3015 736 3407 
C 858 3954 1216 4121 1466 4121 
C 1728 4121 2067 3947 2189 3420 
C 2272 3054 2278 2623 2278 2109 
C 2278 1691 2278 1176 2202 797 
C 2067 96 1690 -26 1466 -26 
z
" transform="scale(0.015625)"/>
        <path id="CMMI12-3a" d="M 1178 307 
C 1178 492 1024 620 870 620 
C 685 620 557 467 557 313 
C 557 128 710 0 864 0 
C 1050 0 1178 153 1178 307 
z
" transform="scale(0.015625)"/>
        <path id="CMR17-32" d="M 2669 990 
L 2554 990 
C 2490 537 2438 460 2413 422 
C 2381 371 1920 371 1830 371 
L 602 371 
C 832 620 1280 1073 1824 1596 
C 2214 1966 2669 2400 2669 3033 
C 2669 3788 2067 4224 1395 4224 
C 691 4224 262 3603 262 3027 
C 262 2777 448 2745 525 2745 
C 589 2745 781 2783 781 3007 
C 781 3206 614 3264 525 3264 
C 486 3264 448 3257 422 3244 
C 544 3788 915 4057 1306 4057 
C 1862 4057 2227 3616 2227 3033 
C 2227 2477 1901 1998 1536 1583 
L 262 147 
L 262 0 
L 2515 0 
L 2669 990 
z
" transform="scale(0.015625)"/>
       </defs>
       <use xlink:href="#CMR17-30" transform="scale(0.996264)"/>
       <use xlink:href="#CMMI12-3a" transform="translate(45.690477 0) scale(0.996264)"/>
       <use xlink:href="#CMR17-32" transform="translate(72.787654 0) scale(0.996264)"/>
      </g>
     </g>
    </g>
    <g id="ytick_2">
     <g id="line2d_10">
      <path d="M 670.734722 423.951996 
L 565.952588 467.354177 
L 522.550408 572.13631 
L 565.952588 676.918443 
L 670.734722 720.320624 
L 775.516855 676.918443 
L 818.919035 572.13631 
L 775.516855 467.354177 
L 670.734722 423.951996 
" clip-path="url(#p14ce3062ef)" style="fill: none; stroke: #808080; stroke-linecap: square"/>
     </g>
     <g id="text_10">
      <!-- $\mathdefault{0.4}$ -->
      <g transform="translate(614.02704 426.511672) scale(0.45 -0.45)">
       <defs>
        <path id="CMR17-34" d="M 2150 4147 
C 2150 4281 2144 4288 2029 4288 
L 128 1254 
L 128 1088 
L 1779 1088 
L 1779 460 
C 1779 230 1766 166 1318 166 
L 1197 166 
L 1197 0 
C 1402 12 1747 12 1965 12 
C 2182 12 2528 12 2733 0 
L 2733 166 
L 2611 166 
C 2163 166 2150 230 2150 460 
L 2150 1088 
L 2803 1088 
L 2803 1254 
L 2150 1254 
L 2150 4147 
z
M 1798 3723 
L 1798 1254 
L 256 1254 
L 1798 3723 
z
" transform="scale(0.015625)"/>
       </defs>
       <use xlink:href="#CMR17-30" transform="scale(0.996264)"/>
       <use xlink:href="#CMMI12-3a" transform="translate(45.690477 0) scale(0.996264)"/>
       <use xlink:href="#CMR17-34" transform="translate(72.787654 0) scale(0.996264)"/>
      </g>
     </g>
    </g>
    <g id="ytick_3">
     <g id="line2d_11">
      <path d="M 670.734722 349.859839 
L 513.561522 414.96311 
L 448.458251 572.13631 
L 513.561522 729.30951 
L 670.734722 794.412781 
L 827.907921 729.30951 
L 893.011192 572.13631 
L 827.907921 414.96311 
L 670.734722 349.859839 
" clip-path="url(#p14ce3062ef)" style="fill: none; stroke: #808080; stroke-linecap: square"/>
     </g>
     <g id="text_11">
      <!-- $\mathdefault{0.6}$ -->
      <g transform="translate(585.673199 358.059445) scale(0.45 -0.45)">
       <defs>
        <path id="CMR17-36" d="M 678 2198 
C 678 3712 1395 4076 1811 4076 
C 1946 4076 2272 4049 2400 3782 
C 2298 3782 2106 3782 2106 3558 
C 2106 3385 2246 3328 2336 3328 
C 2394 3328 2566 3353 2566 3571 
C 2566 3987 2246 4224 1805 4224 
C 1043 4224 243 3411 243 2011 
C 243 257 966 -128 1478 -128 
C 2099 -128 2688 431 2688 1295 
C 2688 2101 2170 2688 1517 2688 
C 1126 2688 838 2430 678 1979 
L 678 2198 
z
M 1478 25 
C 691 25 691 1212 691 1450 
C 691 1914 909 2585 1504 2585 
C 1613 2585 1926 2585 2138 2140 
C 2253 1889 2253 1624 2253 1302 
C 2253 954 2253 696 2118 438 
C 1978 173 1773 25 1478 25 
z
" transform="scale(0.015625)"/>
       </defs>
       <use xlink:href="#CMR17-30" transform="scale(0.996264)"/>
       <use xlink:href="#CMMI12-3a" transform="translate(45.690477 0) scale(0.996264)"/>
       <use xlink:href="#CMR17-36" transform="translate(72.787654 0) scale(0.996264)"/>
      </g>
     </g>
    </g>
    <g id="ytick_4">
     <g id="line2d_12">
      <path d="M 670.734722 275.767683 
L 461.170455 362.572044 
L 374.366094 572.13631 
L 461.170455 781.700577 
L 670.734722 868.504938 
L 880.298988 781.700577 
L 967.103349 572.13631 
L 880.298988 362.572044 
L 670.734722 275.767683 
" clip-path="url(#p14ce3062ef)" style="fill: none; stroke: #808080; stroke-linecap: square"/>
     </g>
     <g id="text_12">
      <!-- $\mathdefault{0.8}$ -->
      <g transform="translate(557.319358 289.607218) scale(0.45 -0.45)">
       <defs>
        <path id="CMR17-38" d="M 1741 2289 
C 2144 2494 2554 2803 2554 3298 
C 2554 3884 1990 4224 1472 4224 
C 890 4224 378 3800 378 3215 
C 378 3054 416 2777 666 2533 
C 730 2469 998 2276 1171 2154 
C 883 2006 211 1652 211 945 
C 211 282 838 -128 1459 -128 
C 2144 -128 2720 366 2720 1022 
C 2720 1607 2330 1877 2074 2051 
L 1741 2289 
z
M 902 2855 
C 851 2887 595 3086 595 3388 
C 595 3781 998 4076 1459 4076 
C 1965 4076 2336 3716 2336 3298 
C 2336 2700 1670 2359 1638 2359 
C 1632 2359 1626 2359 1574 2398 
L 902 2855 
z
M 2080 1536 
C 2176 1466 2483 1253 2483 861 
C 2483 385 2010 25 1472 25 
C 890 25 448 443 448 951 
C 448 1459 838 1884 1280 2083 
L 2080 1536 
z
" transform="scale(0.015625)"/>
       </defs>
       <use xlink:href="#CMR17-30" transform="scale(0.996264)"/>
       <use xlink:href="#CMMI12-3a" transform="translate(45.690477 0) scale(0.996264)"/>
       <use xlink:href="#CMR17-38" transform="translate(72.787654 0) scale(0.996264)"/>
      </g>
     </g>
    </g>
   </g>
   <g id="line2d_13">
    <path d="M 670.734722 253.540035 
L 579.050355 480.451944 
L 518.8458 572.13631 
L 581.669908 661.201123 
L 670.734722 912.960232 
L 799.092835 700.494423 
L 952.284918 572.13631 
L 809.571048 433.299984 
L 670.734722 253.540035 
" clip-path="url(#p14ce3062ef)" style="fill: none; stroke: #0000ff; stroke-width: 1.5; stroke-linecap: square"/>
   </g>
   <g id="line2d_14">
    <path d="M 670.734722 320.222977 
L 626.202315 527.603904 
L 581.824133 572.13631 
L 524.039735 718.831297 
L 670.734722 924.074056 
L 801.712388 703.113977 
L 855.965114 572.13631 
L 736.223555 506.647477 
L 670.734722 320.222977 
" clip-path="url(#p14ce3062ef)" style="fill: none; stroke: #ff0000; stroke-width: 1.5; stroke-linecap: square"/>
   </g>
   <g id="patch_5">
    <path d="M 670.734722 205.750594 
L 411.660897 313.062486 
L 304.349006 572.13631 
L 411.660897 831.210135 
L 670.734722 938.522026 
L 929.808546 831.210135 
L 1037.120438 572.13631 
L 929.808546 313.062486 
L 670.734722 205.750594 
z
" style="fill: none; stroke: #000000; stroke-width: 0.8; stroke-linejoin: miter; stroke-linecap: square"/>
   </g>
   <g id="text_13">
    <!-- Supervised -->
    <g transform="translate(498.174159 1248.269171) scale(0.8 -0.8)">
     <use xlink:href="#CMR17-53" transform="scale(0.996264)"/>
     <use xlink:href="#CMR17-75" transform="translate(50.89537 0) scale(0.996264)"/>
     <use xlink:href="#CMR17-70" transform="translate(101.79074 0) scale(0.996264)"/>
     <use xlink:href="#CMR17-65" transform="translate(155.288548 0) scale(0.996264)"/>
     <use xlink:href="#CMR17-72" transform="translate(195.774209 0) scale(0.996264)"/>
     <use xlink:href="#CMR17-76" transform="translate(231.054976 0) scale(0.996264)"/>
     <use xlink:href="#CMR17-69" transform="translate(279.347892 0) scale(0.996264)"/>
     <use xlink:href="#CMR17-73" transform="translate(304.218951 0) scale(0.996264)"/>
     <use xlink:href="#CMR17-65" transform="translate(340.020288 0) scale(0.996264)"/>
     <use xlink:href="#CMR17-64" transform="translate(380.505949 0) scale(0.996264)"/>
    </g>
   </g>
   <g id="legend_1">
    <g id="patch_6">
     <path d="M 680.334722 791.96774 
L 1035.573291 791.96774 
Q 1045.173291 791.96774 1045.173291 782.36774 
L 1045.173291 662.96468 
Q 1045.173291 653.36468 1035.573291 653.36468 
L 680.334722 653.36468 
Q 670.734722 653.36468 670.734722 662.96468 
L 670.734722 782.36774 
Q 670.734722 791.96774 680.334722 791.96774 
z
" style="fill: #ffffff; opacity: 0.8; stroke: #cccccc; stroke-linejoin: miter"/>
    </g>
    <g id="line2d_15">
     <path d="M 689.934722 689.36468 
L 737.934722 689.36468 
L 785.934722 689.36468 
" style="fill: none; stroke: #0000ff; stroke-width: 1.5; stroke-linecap: square"/>
    </g>
    <g id="text_14">
     <!-- ViT-B -->
     <g transform="translate(824.334722 706.16468) scale(0.48 -0.48)">
      <defs>
       <path id="CMR17-56" d="M 3776 3762 
C 3834 3903 3936 4179 4365 4185 
L 4365 4352 
C 4218 4339 4051 4339 3891 4339 
C 3738 4339 3475 4339 3328 4352 
L 3328 4185 
C 3648 4166 3661 3942 3661 3903 
C 3661 3833 3642 3788 3622 3737 
L 2362 448 
L 1043 3903 
C 1024 3948 1011 3980 1011 4012 
C 1011 4185 1267 4185 1402 4185 
L 1402 4352 
C 1197 4339 896 4339 685 4339 
C 518 4339 218 4339 64 4352 
L 64 4185 
C 435 4185 506 4160 582 3955 
L 2106 -26 
C 2138 -116 2144 -128 2214 -128 
C 2285 -128 2291 -116 2323 -26 
L 3776 3762 
z
" transform="scale(0.015625)"/>
       <path id="CMR17-54" d="M 3981 4332 
L 288 4332 
L 179 2924 
L 294 2924 
C 378 3981 467 4166 1453 4166 
C 1568 4166 1754 4166 1805 4159 
C 1926 4140 1926 4064 1926 3917 
L 1926 465 
C 1926 236 1907 166 1376 166 
L 1197 166 
L 1197 0 
C 1504 6 1824 12 2138 12 
C 2451 12 2771 6 3078 0 
L 3078 166 
L 2899 166 
C 2368 166 2349 236 2349 465 
L 2349 3917 
C 2349 4057 2349 4134 2464 4159 
C 2515 4166 2701 4166 2816 4166 
C 3795 4166 3891 3981 3974 2924 
L 4090 2924 
L 3981 4332 
z
" transform="scale(0.015625)"/>
       <path id="CMR17-2d" d="M 1632 1254 
L 1632 1536 
L 26 1536 
L 26 1254 
L 1632 1254 
z
" transform="scale(0.015625)"/>
      </defs>
      <use xlink:href="#CMR17-56" transform="scale(0.996264)"/>
      <use xlink:href="#CMR17-69" transform="translate(69.07243 0) scale(0.996264)"/>
      <use xlink:href="#CMR17-54" transform="translate(93.943488 0) scale(0.996264)"/>
      <use xlink:href="#CMR17-2d" transform="translate(160.453369 0) scale(0.996264)"/>
      <use xlink:href="#CMR17-42" transform="translate(190.529335 0) scale(0.996264)"/>
     </g>
    </g>
    <g id="line2d_16">
     <path d="M 689.934722 746.66621 
L 737.934722 746.66621 
L 785.934722 746.66621 
" style="fill: none; stroke: #ff0000; stroke-width: 1.5; stroke-linecap: square"/>
    </g>
    <g id="text_15">
     <!-- \emph{Syn}ViT-B -->
     <g transform="translate(824.334722 763.46621) scale(0.48 -0.48)">
      <defs>
       <path id="CMTI12-53" d="M 3968 4332 
C 3974 4351 3987 4403 3987 4422 
C 3987 4480 3936 4480 3923 4480 
C 3904 4480 3885 4480 3834 4409 
L 3546 4027 
C 3309 4480 2835 4480 2720 4480 
C 1971 4480 1267 3742 1267 2979 
C 1267 2840 1280 2579 1510 2331 
C 1645 2185 1760 2153 2202 2026 
C 2278 2001 2541 1925 2592 1912 
C 2861 1823 2976 1575 2976 1290 
C 2976 711 2477 57 1894 57 
C 1402 57 947 305 947 953 
C 947 1016 960 1188 998 1340 
L 1005 1391 
C 1005 1448 954 1448 922 1448 
C 851 1448 838 1442 813 1340 
L 480 19 
C 474 0 461 -52 461 -71 
C 461 -128 512 -128 525 -128 
C 550 -128 557 -122 621 -45 
L 909 337 
C 1082 76 1370 -128 1875 -128 
C 2650 -128 3366 686 3366 1512 
C 3366 2014 3110 2300 2790 2401 
C 2739 2414 2291 2547 2170 2585 
C 1965 2643 1664 2732 1664 3208 
C 1664 3754 2170 4307 2707 4307 
C 3475 4307 3475 3595 3475 3399 
C 3475 3316 3475 3208 3450 3024 
C 3437 2986 3437 2973 3437 2967 
C 3437 2903 3482 2903 3526 2903 
C 3597 2903 3610 2909 3635 3011 
L 3968 4332 
z
" transform="scale(0.015625)"/>
       <path id="CMTI12-79" d="M 3206 2471 
C 3232 2560 3232 2573 3232 2598 
C 3232 2694 3155 2751 3072 2751 
C 2893 2751 2848 2592 2822 2502 
L 2355 619 
C 2304 421 2048 64 1690 64 
C 1402 64 1344 351 1344 562 
C 1344 945 1568 1551 1715 1960 
C 1766 2107 1798 2190 1798 2317 
C 1798 2573 1645 2816 1331 2816 
C 749 2816 531 1877 531 1838 
C 531 1781 589 1781 621 1781 
C 698 1781 704 1800 730 1890 
C 781 2081 947 2687 1318 2687 
C 1395 2687 1466 2656 1466 2502 
C 1466 2343 1402 2177 1267 1807 
C 1062 1238 979 913 979 664 
C 979 89 1357 -64 1670 -64 
C 1946 -64 2138 76 2240 178 
C 2176 -101 2099 -410 1875 -736 
C 1670 -1021 1440 -1152 1216 -1152 
C 1043 -1152 864 -1071 819 -839 
C 1126 -826 1133 -564 1133 -551 
C 1133 -455 1062 -365 934 -365 
C 890 -365 634 -378 634 -749 
C 634 -1071 883 -1280 1210 -1280 
C 1875 -1280 2432 -608 2586 -20 
L 3206 2471 
z
" transform="scale(0.015625)"/>
       <path id="CMTI12-6e" d="M 1587 1730 
C 1626 1870 1971 2687 2586 2687 
C 2880 2687 2880 2368 2880 2260 
C 2880 1864 2598 1098 2490 785 
C 2432 625 2406 568 2406 434 
C 2406 127 2605 -64 2867 -64 
C 3462 -64 3667 887 3667 913 
C 3667 970 3610 970 3584 970 
C 3507 970 3501 951 3475 855 
C 3418 638 3245 64 2886 64 
C 2790 64 2739 108 2739 255 
C 2739 408 2810 606 2861 734 
C 3027 1200 3245 1794 3245 2164 
C 3245 2502 3098 2816 2605 2816 
C 2208 2816 1907 2585 1696 2298 
C 1677 2585 1478 2816 1184 2816 
C 1037 2816 870 2751 736 2477 
C 614 2241 531 1858 531 1845 
C 531 1794 563 1781 621 1781 
C 691 1781 698 1787 736 1934 
C 832 2311 954 2687 1171 2687 
C 1338 2687 1338 2502 1338 2426 
C 1338 2305 1312 2164 1286 2075 
L 819 210 
C 794 121 794 115 794 89 
C 794 12 845 -64 960 -64 
C 1107 -64 1171 51 1197 159 
L 1587 1730 
z
" transform="scale(0.015625)"/>
      </defs>
      <use xlink:href="#CMTI12-53" transform="scale(0.996264)"/>
      <use xlink:href="#CMTI12-79" transform="translate(54.795098 0) scale(0.996264)"/>
      <use xlink:href="#CMTI12-6e" transform="translate(102.11814 0) scale(0.996264)"/>
      <use xlink:href="#CMR17-56" transform="translate(164.362203 0) scale(0.996264)"/>
      <use xlink:href="#CMR17-69" transform="translate(233.434633 0) scale(0.996264)"/>
      <use xlink:href="#CMR17-54" transform="translate(258.305691 0) scale(0.996264)"/>
      <use xlink:href="#CMR17-2d" transform="translate(324.815572 0) scale(0.996264)"/>
      <use xlink:href="#CMR17-42" transform="translate(354.891538 0) scale(0.996264)"/>
     </g>
    </g>
   </g>
  </g>
 </g>
 <defs>
  <clipPath id="p14ce3062ef">
   <path d="M 670.734722 205.750594 
L 411.660897 313.062486 
L 304.349006 572.13631 
L 411.660897 831.210135 
L 670.734722 938.522026 
L 929.808546 831.210135 
L 1037.120438 572.13631 
L 929.808546 313.062486 
z
"/>
  </clipPath>
 </defs>
</svg>
